<?xml version="1.0" encoding="UTF-8"?>
<svg id="_レイヤー_1" data-name="レイヤー_1" xmlns="http://www.w3.org/2000/svg" version="1.1" viewBox="0 0 25 25">
  <!-- Generator: Adobe Illustrator 29.1.0, SVG Export Plug-In . SVG Version: 2.1.0 Build 142)  -->
  <defs>
    <style>
      .st0 {
        fill: #2d8c3c;
      }

      .st1 {
        fill: #fff;
      }
    </style>
  </defs>
  <rect class="st0" width="25" height="25" rx="5.6" ry="5.6"/>
  <path class="st1" d="M15.2,15.8h-5.4v3.4c0,.2-.2.7-.4.8-.8.8-2.1.3-2.3-.7.1-3.1-.2-6.4,0-9.5s4.7-6.7,8.3-4.4,2.5,2.8,2.6,4.8c.1,3,0,6.1,0,9-.2,1.3-1.9,1.6-2.6.5s-.2-.4-.2-.4v-3.5ZM9.8,9.7v3.2h0c0,0,5.3,0,5.3,0,0,0,0,0,0-.2,0-.7,0-2.9-.1-3.6-.7-2.7-5-2.5-5.3.5Z"/>
</svg>