<?xml version="1.0" encoding="UTF-8"?>
<svg id="_レイヤー_1" xmlns="http://www.w3.org/2000/svg" version="1.1" viewBox="0 0 480 200">
  <!-- Generator: Adobe Illustrator 29.1.0, SVG Export Plug-In . SVG Version: 2.1.0 Build 142)  -->
  <defs>
    <style>
      .st0 {
        stroke: #fff;
        stroke-miterlimit: 10;
        stroke-width: 2px;
      }

      .st0, .st1 {
        fill: #172e58;
      }

      .st2 {
        fill: #fff;
      }
    </style>
  </defs>
  <rect class="st2" x="61.1" y="65.9" width="202.2" height="128.6"/>
  <path class="st1" d="M100,0h280c55.2,0,100,44.8,100,100h0c0,55.2-44.8,100-100,100H100C44.8,200,0,155.2,0,100h0C0,44.8,44.8,0,100,0Z"/>
  <path class="st0" d="M100,10h280c49.7,0,90,40.3,90,90h0c0,49.7-40.3,90-90,90H100c-49.7,0-90-40.3-90-90h0C10,50.3,50.3,10,100,10Z"/>
  <g>
    <path class="st2" d="M51.4,107c-.7,0-1.4.2-2,.6l22.5,19c1,.9,2.4.9,3.4,0l22.5-19c-.6-.4-1.3-.6-2-.6h-44.4ZM47.8,109.6c0,.4-.2.8-.2,1.2v25.4c0,.8.2,1.5.6,2.1l16.1-14.7s-16.5-14-16.5-14ZM99.4,109.6l-16.5,14,16.1,14.7c.4-.6.6-1.3.6-2.1v-25.4c0-.4,0-.9-.2-1.2ZM81,125.2l-4,3.4c-1.9,1.6-4.8,1.6-6.7,0l-4-3.4-16,14.6c.4.1.7.2,1.1.2h44.4c.4,0,.8,0,1.1-.2l-16-14.6h0Z"/>
    <g>
      <path class="st2" d="M155.2,121.6c2.7,1.1,4.8,2.7,6.2,4.6,1.5,2,2.2,4.2,2.2,6.6s-.6,5.1-1.7,7.1c-1.1,2-2.7,3.5-4.7,4.6s-4.3,1.6-7,1.6-6.1-.5-9-1.6l1.5-5.9c2.7,1,5.2,1.5,7.5,1.5s3.7-.6,5-1.8c1.2-1.2,1.9-2.9,1.9-5.2s-1-4.1-3-5.5c-2-1.4-4.8-2.1-8.3-2.1s-5.5.3-8,.8v10.2c0,3.4-.8,5.9-2.3,7.5-1.6,1.6-3.9,2.4-7,2.4s-3.1-.3-4.6-1c-1.6-.7-2.9-1.7-3.9-3.2-1-1.4-1.6-3.1-1.6-5.1,0-3.1,1.2-5.9,3.6-8.6,2.4-2.6,5.7-4.7,9.8-6.3v-8.1c-2.9,0-5.7.2-8.3.2h-4.1v-5.8h2.6c3.5,0,6.8,0,9.9-.2v-8.3h6v8c3.8-.3,6.8-.5,9.1-.9l.5,5.8c-2.4.3-5.7.6-9.6.9v6.7c2.7-.5,5.4-.7,8-.7s6.7.6,9.3,1.7h0ZM131.8,128.3c-2.3,1.1-4,2.3-5.3,3.8s-1.9,3-1.9,4.6.4,2.1,1.2,2.8c.8.7,1.8,1,2.9,1s1.8-.3,2.4-.9c.5-.6.8-1.6.8-2.9v-8.5h0ZM162.4,117.1c-1.8-1.5-3.9-3-6.3-4.5-2.4-1.5-4.7-2.9-7-4.1l3.5-5.2c2.3,1.1,4.6,2.4,6.9,3.9,2.4,1.5,4.5,3,6.4,4.4l-3.5,5.5h0Z"/>
      <path class="st2" d="M177.6,148.4h-5.9v-48.3h20.8v19.7h-14.9v28.6h0ZM177.4,104.5v3.2h9.8v-3.2h-9.8ZM177.4,112v3.3h9.8v-3.3h-9.8ZM188.6,144.3h-5.6v-20.9h23.1v17.4h-17.4v3.5h-.1ZM188.6,127.9v8.3h11.8v-8.3s-11.8,0-11.8,0ZM206.1,147.8l-1.2-5.2h7.3v-22.9h-15.8v-19.7h21.7v42.7c0,1.8-.5,3-1.4,3.9-1,.8-2.4,1.2-4.4,1.2h-6.2ZM201.7,104.5v3.2h10.6v-3.2h-10.6ZM201.7,112v3.3h10.6v-3.3h-10.6Z"/>
      <path class="st2" d="M229.2,136.3c-2.1-5.8-3.1-14.2-3.1-25.4s0-3.1.1-4.8v-1.8l6.7.3v1.3c-.2,3.6-.3,5.3-.3,5.2v1.6c0,5,.3,9.4.8,13.2.6,3.8,1.3,6.8,2.1,8.8.9,2.1,1.7,3.1,2.7,3.1s2-.8,2.7-2.5,1.3-4.8,1.9-9.2l5.9,1.4c-.8,6.5-2,11-3.7,13.5-1.7,2.6-3.9,3.8-6.6,3.8-4.1,0-7.2-2.9-9.3-8.7v.2h.1ZM264.3,136.2c-.7-10.8-4.1-19.6-10.1-26.6l5.8-3.8c3.3,3.8,5.9,8.3,7.8,13.3s3.1,10.4,3.5,16.1l-6.9.9h0Z"/>
      <path class="st2" d="M303.6,98.4c1.5,3.3,4,6.2,7.5,8.9,3.5,2.7,8.6,5.6,15.3,8.8l-3.1,5.7c-4.5-2.2-8.1-4.1-10.9-5.9v3.9h-24.9v-4.1c-3,2-6.6,4-10.7,6l-3.2-5.8c6.5-3.1,11.4-5.9,14.7-8.6,3.3-2.6,5.7-5.7,7.3-9h8ZM286.4,148.6h-5.9v-23.5h39.3v23.5h-6v-2.5h-27.4v2.5ZM313.7,130.5h-27.4v10.2h27.4v-10.2ZM310,114.2c-3-2.1-5.3-4.2-6.9-6.2-1.6-2.1-2.7-4.3-3.2-6.7h-.5c-.5,2.4-1.5,4.7-3.1,6.7-1.6,2.1-3.7,4.1-6.5,6.2h20.2Z"/>
      <path class="st2" d="M371.1,110.4c2.2,1.3,4,3.2,5.2,5.6s1.9,5.3,1.9,8.6-.9,7.9-2.6,11c-1.7,3-4.1,5.3-7.2,6.9-3.1,1.6-6.7,2.3-10.8,2.3s-2.2,0-3.5-.2l-.2-6.2c1.3,0,2.3.1,2.9.1,4.6,0,8.3-1.2,10.9-3.6,2.6-2.4,4-5.8,4-10.1s-.7-5.8-2.2-7.6c-1.5-1.8-3.7-2.6-6.7-2.6s-5.1.8-7.6,2.5c-2.5,1.6-5.2,4.1-8.1,7.4v22.6h-6.1v-15l-3.3,4-2.9,3.5-4.3-4.6c3.1-3.2,6.6-7.2,10.5-12.1v-7.5h-9.8v-5.7h9.8v-9.8h6.1v16.1c2.6-2.5,5.2-4.4,7.7-5.7,2.5-1.3,5.3-1.9,8.4-1.9s5.6.6,7.9,1.9h0Z"/>
      <path class="st2" d="M425.6,138.7l.7,6c-5.9,1-12.1,1.5-18.6,1.5s-5.8-.4-7.8-1.2-3.5-2-4.4-3.7-1.4-4-1.4-6.9v-16.2c-4.4,0-7.8.3-10.1.4l-.2-6.1c4.5,0,7.9-.2,10.3-.3v-10.9h6.3v10.7c3.6,0,8.8-.2,15.6-.4,0-5.1-.1-8.8-.2-11.1h6c0,2.3.1,6,.2,11l10.4-.3v5.9c.1,0-10.3.3-10.3.3v8.8c0,3.5-.2,3-.6,3.9s-1.1,1.6-2,2-2.2.6-3.9.6-2.2,0-3.8-.2c-1.5-.1-3.4-.3-5.6-.6l.2-5.9c4.7.5,7.5.8,8.2.8s1,0,1.2-.3c.2-.2.3-.6.3-1.3v-7.6l-15.7.4v16.1c0,2.3.6,3.8,1.7,4.7s3,1.3,5.7,1.3c6.4,0,12.4-.5,18-1.5h-.2Z"/>
    </g>
    <g>
      <path class="st2" d="M69.5,74.1v-7.5h3.4v12.6h-3.4v-2h-18.5v2h-3.4v-12.6h3.4v7.5h7.4v-9.6h-9.9v-10.9h3.3v7.8h6.6v-9.4h3.3v9.4h7v-7.8h3.3v10.9h-10.3v9.6h7.8Z"/>
      <path class="st2" d="M81.2,65.5c-1.8-1.6-3.7-3-5.6-4.2l2-2.5c.9.5,1.8,1.2,2.8,1.9s1.9,1.5,2.7,2.2l-2,2.5h0ZM82.8,68.8c-.4,1.7-1,3.6-1.7,5.5s-1.5,3.6-2.3,5.1l-2.8-2.1c1.6-2.5,2.9-5.7,4-9.6l2.8,1.1ZM97.4,74.2c2.4.9,4.6,1.9,6.6,3l-2,2.4c-2-1.3-4.4-2.5-7.1-3.6l1.9-1.7h-6.8l2.1,1.8c-2.2,1.5-4.8,2.7-8,3.5l-1.9-2.5c3.2-.7,5.7-1.6,7.6-2.8h-5.1v-11.9h7.4v-1.6h-5.8v-1h-2.3v-4.5l-1.8,2.5c-1.9-1.5-3.6-2.7-5.1-3.7l1.9-2.5c1.7,1,3.4,2.2,5,3.6v-1.6h7.9v-2h3.4v2h8.3v6.1h-2.3v1h-6.2v1.6h7.6v11.9s-5.3,0-5.3,0ZM100.6,58v-1.8h-13.7v1.8h13.7ZM92.1,67v-2.1h-4.4v2.1h4.4ZM92.1,69.4h-4.4v2.2h4.4v-2.2ZM95,67h4.6v-2.1h-4.6v2.1ZM95,71.7h4.6v-2.2h-4.6v2.2Z"/>
      <path class="st2" d="M117.7,68c-.5-.5-.8-1.2-.8-2v-.7c0-.8.3-1.5.8-2s1.3-.8,2.3-.8,1.8.3,2.3.8.8,1.2.8,2v.7c0,.8-.3,1.5-.8,2s-1.3.8-2.3.8-1.8-.3-2.3-.8Z"/>
      <path class="st2" d="M164.1,76l-1.9,3.1c-2.1-1.9-3.9-3.9-5.2-5.9-1.7,2.1-3.8,4.1-6.3,6l-1.8-3.1v3.3h-3v-5.6c-3.2.8-6.3,1.6-9.2,2.2l-.7-3.1,2-.3v-17.4h-1.7v-2.7h13.6v2.7h-1v20.7c2.7-1.9,4.8-3.8,6.4-5.8-1-1.9-1.8-3.9-2.4-6-.7-2.1-1.2-4.5-1.6-7.1l3-.8c.4,2.4.9,4.4,1.3,6.1.5,1.7,1,3.3,1.7,4.8.7-1.5,1.3-3.1,1.8-4.9.4-1.8.7-3.8.9-6.1h-9.3v-2.9h12.6v2.4c-.2,3-.7,5.7-1.4,8.1-.7,2.4-1.6,4.6-2.8,6.6,1.4,2,3.1,3.9,5.2,5.7h-.2ZM145.8,58.9v-3.7h-4.9v3.7h4.9ZM145.8,61.5h-4.9v3.7h4.9s0-3.7,0-3.7ZM140.9,72.1c1.7-.3,3.4-.7,4.9-1v-3.3h-4.9v4.4h0Z"/>
      <path class="st2" d="M178.6,67.4l-2.3,1.9-2.2-4.6s0-.2-.1-.2,0,0,0,.2v14.6h-3v-14h-.3c-.1,1.6-.4,2.9-.9,4.1s-1.2,2.4-2.3,3.7l-2-2.8c1.6-1.9,2.8-3.7,3.6-5.4.8-1.7,1.2-3.4,1.4-5.1h-4.2v-3h4.6v-5.1h3v5.1h3.8v3h-3.8v3.3h.1l.8-.6c.3-.2.5-.3.7-.3.3,0,.6.2.9.8l2.2,4.3h0ZM193.4,56.9v2.9h-3.2v15.9c0,1.1-.2,2-.7,2.5s-1.3.8-2.4.8h-4.3l-.9-3.1h5.2v-13.1h-.3c-.2,1.5-.7,2.9-1.3,4.1s-1.4,2.4-2.4,3.6-2.4,2.6-4.1,4.3l-2.1-2.6c2.3-2,4.3-4.1,5.9-6.3s2.7-4.1,3.3-6h-7.7v-2.9h8.7v-5.1h3.1v5.1h3.2Z"/>
      <path class="st2" d="M207.3,68c-.5-.5-.8-1.2-.8-2v-.7c0-.8.3-1.5.8-2s1.3-.8,2.3-.8,1.8.3,2.3.8.8,1.2.8,2v.7c0,.8-.3,1.5-.8,2s-1.3.8-2.3.8-1.8-.3-2.3-.8Z"/>
      <path class="st2" d="M235,59.5h-9.2v-2.8h9.2v2.8ZM229.2,79.5h-2.6v-10h8.1v8.8h-5.5v1.2ZM226.7,52.4h8v2.7h-8v-2.7ZM226.8,61h7.8v2.6h-7.8v-2.6ZM234.5,67.9h-7.8v-2.6h7.8v2.6ZM232.1,72.1h-2.9v3.6h2.9v-3.6ZM253.5,72.1v2.3h-1.6v2.2c0,1-.2,1.7-.6,2.1-.4.4-1.1.6-2.1.6h-3.4l-.7-2.5h3.9v-2.3h-9.9v5h-2.7v-5h-1v-2.3h1v-7.5h6.2v-1.4h-7.1v-2.2h3.9v-1.7h-3.7v-2.1h3.7v-1.5h-4.1v-2.2h4.1v-1.8h2.7v1.8h4v-1.8h2.8v1.8h4.1v2.2h-4.1v1.5h3.7v2.1h-3.7v1.7h4.4v2.2h-7.9v1.4h6.4v7.5h1.7ZM242.9,68.4v-1.6h-3.6v1.6h3.6ZM242.9,70.4h-3.6v1.8h3.6v-1.8ZM246.2,55.7h-4v1.5h4v-1.5ZM246.2,59.3h-4v1.7h4v-1.7ZM245.4,68.4h3.8v-1.6h-3.8v1.6ZM245.4,70.4v1.8h3.8v-1.8h-3.8Z"/>
      <path class="st2" d="M261.4,65.5c-1.8-1.6-3.7-3-5.6-4.2l2-2.5c.9.5,1.8,1.2,2.8,1.9s1.9,1.5,2.7,2.2l-2,2.5h.1ZM262.9,68.8c-.4,1.7-1,3.6-1.7,5.5s-1.5,3.6-2.3,5.1l-2.8-2.1c1.6-2.5,2.9-5.7,4-9.6l2.8,1.1ZM277.6,74.2c2.4.9,4.6,1.9,6.6,3l-2,2.4c-2-1.3-4.4-2.5-7.1-3.6l1.9-1.7h-6.8l2.1,1.8c-2.2,1.5-4.8,2.7-8,3.5l-1.9-2.5c3.2-.7,5.7-1.6,7.6-2.8h-5.1v-11.9h7.4v-1.6h-5.8v-1h-2.3v-4.5l-1.8,2.5c-1.9-1.5-3.6-2.7-5.1-3.7l1.9-2.5c1.7,1,3.4,2.2,5,3.6v-1.6h7.9v-2h3.4v2h8.3v6.1h-2.3v1h-6.2v1.6h7.6v11.9h-5.3ZM280.8,58v-1.8h-13.7v1.8h13.7ZM272.3,67v-2.1h-4.4v2.1h4.4ZM272.3,69.4h-4.4v2.2h4.4v-2.2ZM275.2,67h4.6v-2.1h-4.6v2.1ZM275.2,71.7h4.6v-2.2h-4.6v2.2Z"/>
      <path class="st2" d="M293.4,61c-1.5,1-3.5,2.1-5.9,3.2l-1.7-3.2c3.5-1.6,6.2-3.1,8-4.5s3.1-3,4-4.8h4.4c.8,1.7,2.2,3.3,4.1,4.7s4.7,2.9,8.4,4.6l-1.7,3.2c-2.4-1.1-4.4-2.2-6-3.1v2.4h-13.6v-2.5h0ZM287.3,69v-3.1h25.9v3.1h-14c-1.6,2.9-2.9,5.1-4,6.6,4.3-.2,8.1-.4,11.5-.8-.9-1.3-1.7-2.5-2.5-3.5l2.7-1.2c1.8,2.2,3.6,4.9,5.6,8l-2.9,1.5-1.2-2c-5.5.6-12.3,1-20.3,1.3l-.4-3.1h3.4c1.4-2,2.9-4.2,4.3-6.8h-8.2.1ZM299.9,53.3c-.3,1.4-.9,2.6-1.8,3.8s-2.2,2.3-3.9,3.4h12c-1.7-1.1-3.1-2.3-4.1-3.5s-1.6-2.4-1.9-3.8h-.3Z"/>
      <path class="st2" d="M336.7,55.8c1.9.9,3.3,2.3,4.4,3.9,1,1.7,1.6,3.6,1.6,5.7,0,3.5-1,6.3-3,8.3-2,2.1-4.8,3.3-8.6,3.7l-1-3.4c3.1-.4,5.4-1.2,6.8-2.6s2.1-3.3,2.1-5.8-.6-4-1.9-5.4c-1.2-1.4-3-2.2-5.3-2.5-.7,6.1-1.7,10.6-3.1,13.5s-3.2,4.3-5.5,4.3-2.2-.3-3.2-.9-1.8-1.5-2.4-2.7-.9-2.7-.9-4.5.6-4.7,1.7-6.7,2.7-3.5,4.8-4.6c2-1.1,4.3-1.7,6.9-1.7s4.5.5,6.4,1.4c0,0,.2,0,.2,0ZM325.2,70.4c.6-1,1.2-2.5,1.8-4.6.6-2.1,1-4.8,1.4-8-1.5.2-2.9.8-4.1,1.6-1.2.9-2.2,2-2.8,3.4-.7,1.4-1,2.9-1,4.6s.3,2.6.8,3.3c.5.8,1.2,1.2,2.1,1.2s1.3-.5,1.9-1.5h0Z"/>
      <path class="st2" d="M349.6,75.9c-1.8-1.1-2.8-2.6-2.8-4.7s1.1-4.2,3.2-6.3l2.9,1.9c-1.5,1.6-2.3,3-2.3,4.1s.6,1.8,1.9,2.3c1.2.5,3.1.8,5.5.8s6.5-.3,9.6-.9l.4,3.5c-1.4.3-3,.5-4.8.7s-3.5.2-5.2.2c-3.8,0-6.6-.5-8.4-1.6h0ZM349,55.2c2.9,0,5.9-.2,9.2-.2s5.3,0,8.3.2v3.7c-2.7,0-5.4-.2-8.2-.2s-6.5,0-9.1.3v-3.7h-.2,0ZM364.9,67.3c-1-1.8-2-3.4-3.1-4.8l2.2-1.1c1.4,1.9,2.4,3.5,3.1,4.8l-2.2,1.1ZM368.5,65.5c-1.1-1.9-2.1-3.5-3.1-4.8l2.1-1.1c1.2,1.5,2.2,3.1,3.1,4.8l-2.1,1.1Z"/>
      <path class="st2" d="M382.5,52.3c-.6,2.7-1.5,5.3-2.6,7.8v19.3h-3.1v-14c-.5.7-1.1,1.5-1.8,2.2l-1.6-3.1c1.5-1.7,2.7-3.5,3.7-5.6s1.8-4.6,2.5-7.4l2.9.9h0ZM388.4,64.9v10.2c1.5-.3,3.2-.7,4.9-1.2l.6,2.9c-3.9,1.1-7.8,2-11.8,2.5l-.6-3.1c.9,0,2.2-.3,3.9-.6v-7.8c-1,.8-2.2,1.6-3.8,2.5l-1.6-2.7c2.1-1.2,3.9-2.5,5.5-4,1.5-1.5,2.7-3.1,3.4-4.8h-7v-3h7.7v-4h3.2v4h8.8v3h-8.1c.3,2.6.8,5,1.5,7.1,1.7-1.5,3.1-3.1,4.5-5l2.4,2.1c-.7.9-1.5,1.9-2.5,2.9s-2.1,2-3.2,2.9c1.3,2.8,3.3,5.5,5.9,8l-2.3,2.5c-2.5-2.6-4.5-5.4-5.9-8.4s-2.4-6.4-2.8-10.2c-.6,1.5-1.5,2.9-2.6,4.3h-.1Z"/>
      <path class="st2" d="M427.2,73.7c2.2,1.3,3.9,2.5,5.2,3.4l-1.8,2.4c-1.2-1-3-2.3-5.4-3.9l1.8-1.9h-5.8l1.9,1.8c-1.7,1.7-3.5,3-5.6,4.1l-1.7-2.6c1-.4,2-.9,2.9-1.5s1.6-1.2,2.2-1.8h-2.3v-16.2h3.9c.3-.7.6-1.4.9-2.2h-5.4v1.8h-5.5v2.2h4.8v8.6h-4.8v2.1h.2l.7-.7c.2-.2.4-.3.6-.3s.5.2.8.6l2.5,3.4-2,2.3-2.4-3.7s-.1-.2-.2-.2-.1,0-.1.2v7.7h-2.7v-9.2h-.3c-.1,1.4-.5,2.5-1,3.5-.6.9-1.5,2.1-2.9,3.4l-1.6-2.8c2.4-2.1,4-4.2,5-6.4h-3.9v-8.6h4.8v-2.2h-5.4v-2.8h5.4v-2.4h2.7v2.4h5.3v-1.7h13.8v2.7h-5.4c-.3.8-.6,1.6-.9,2.2h5.5v16.2h-3.8ZM409.8,61.8h-2.1v3.4h2.1s0-3.4,0-3.4ZM414.7,65.2v-3.4h-2.2v3.4h2.2ZM427.9,62.1v-2h-6.6v2h6.6ZM421.3,66.5h6.6v-2h-6.6v2ZM427.9,68.9h-6.6v2.2h6.6v-2.2Z"/>
    </g>
  </g>
</svg>