<?xml version="1.0" encoding="UTF-8"?>
<svg id="_x31_3" xmlns="http://www.w3.org/2000/svg" xmlns:xlink="http://www.w3.org/1999/xlink" version="1.1" viewBox="0 0 30 30">
  <!-- Generator: Adobe Illustrator 29.1.0, SVG Export Plug-In . SVG Version: 2.1.0 Build 142)  -->
  <defs>
    <style>
      .st0 {
        fill: #fff;
      }

      .st0, .st1 {
        fill-rule: evenodd;
      }

      .st1 {
        fill: url(#linear-gradient);
      }
    </style>
    <linearGradient id="linear-gradient" x1="25" y1="24.1" x2="4.5" y2="5.5" gradientUnits="userSpaceOnUse">
      <stop offset="0" stop-color="#fec053"/>
      <stop offset=".3" stop-color="#f2203e"/>
      <stop offset=".6" stop-color="#b729a8"/>
      <stop offset="1" stop-color="#5342d6"/>
    </linearGradient>
  </defs>
  <path class="st1" d="M5,0h20c2.8,0,5,2.3,5,5v20c0,2.8-2.3,5-5,5H5c-2.8,0-5-2.3-5-5V5C0,2.3,2.3,0,5,0h0Z"/>
  <path class="st0" d="M22,15c0-3.9-3.1-7-7-7s-7,3.1-7,7,3.1,7,7,7,7-3.1,7-7h0ZM21.8,7.1c-.6,0-1.1.5-1.1,1.1s.5,1.1,1.1,1.1,1.1-.5,1.1-1.1-.5-1.1-1.1-1.1h0ZM9.3,5.5h11.4c2.1,0,3.8,1.7,3.8,3.8v11.4c0,2.1-1.7,3.8-3.8,3.8h-11.4c-2.1,0-3.8-1.7-3.8-3.8v-11.4c0-2.1,1.7-3.8,3.8-3.8h0ZM20.7,4.2h-11.4c-2.8,0-5.1,2.3-5.1,5.1v11.4c0,2.8,2.3,5.1,5.1,5.1h11.4c2.8,0,5.1-2.3,5.1-5.1v-11.4c0-2.8-2.3-5.1-5.1-5.1h0ZM9.5,15c0-3.1,2.5-5.5,5.5-5.5s5.5,2.5,5.5,5.5-2.5,5.5-5.5,5.5-5.5-2.5-5.5-5.5h0Z"/>
</svg>