<?xml version="1.0" encoding="UTF-8"?>
<svg id="_レイヤー_1" data-name="レイヤー_1" xmlns="http://www.w3.org/2000/svg" version="1.1" viewBox="0 0 25 25">
  <!-- Generator: Adobe Illustrator 29.1.0, SVG Export Plug-In . SVG Version: 2.1.0 Build 142)  -->
  <defs>
    <style>
      .st0 {
        fill: #00a65a;
      }

      .st1 {
        fill: #fff;
      }
    </style>
  </defs>
  <rect class="st0" width="25" height="25" rx="5.6" ry="5.6"/>
  <g>
    <path class="st1" d="M20.8,11.3c0-3.7-3.7-6.8-8.3-6.8s-8.3,3-8.3,6.8,3,6.1,7,6.7c.3,0,.6.2.7.4,0,.2,0,.5,0,.8,0,0,0,.6-.1.7,0,.2-.2.8.7.4.9-.4,4.8-2.8,6.5-4.8h0c1.2-1.3,1.8-2.7,1.8-4.2Z"/>
    <g>
      <path class="st0" d="M18.1,13.5h-2.3c0,0-.2,0-.2-.2h0v-3.6h0c0,0,0-.2.2-.2h2.3c0,0,.2,0,.2.2v.6c0,0,0,.2-.2.2h-1.6v.6h1.6c0,0,.2,0,.2.2v.6c0,0,0,.2-.2.2h-1.6v.6h1.6c0,0,.2,0,.2.2v.6c0,0,0,.2-.2.2Z"/>
      <path class="st0" d="M9.4,13.5c0,0,.2,0,.2-.2v-.6c0,0,0-.2-.2-.2h-1.6v-2.9c0,0,0-.2-.2-.2h-.6c0,0-.2,0-.2.2v3.6h0c0,0,0,.2.2.2h2.3Z"/>
      <rect class="st0" x="10.1" y="9.5" width=".9" height="4" rx=".2" ry=".2"/>
      <path class="st0" d="M14.8,9.5h-.6c0,0-.2,0-.2.2v2.2l-1.7-2.2s0,0,0,0c0,0,0,0,0,0,0,0,0,0,0,0,0,0,0,0,0,0,0,0,0,0,0,0,0,0,0,0,0,0,0,0,0,0,0,0,0,0,0,0,0,0,0,0,0,0,0,0,0,0,0,0,0,0,0,0,0,0,0,0,0,0,0,0,0,0,0,0,0,0,0,0,0,0,0,0,0,0,0,0,0,0,0,0,0,0,0,0,0,0,0,0,0,0,0,0,0,0,0,0,0,0,0,0,0,0,0,0h-.6c0,0-.2,0-.2.2v3.6c0,0,0,.2.2.2h.6c0,0,.2,0,.2-.2v-2.2l1.7,2.3s0,0,0,0c0,0,0,0,0,0,0,0,0,0,0,0,0,0,0,0,0,0,0,0,0,0,0,0,0,0,0,0,0,0,0,0,0,0,0,0,0,0,0,0,0,0,0,0,0,0,0,0,0,0,0,0,0,0h.6c0,0,.2,0,.2-.2v-3.6c0,0,0-.2-.2-.2Z"/>
    </g>
  </g>
</svg>