<?xml version="1.0" encoding="UTF-8"?>
<svg id="_レイヤー_1" data-name="レイヤー_1" xmlns="http://www.w3.org/2000/svg" version="1.1" viewBox="0 0 360.2 66.7">
  <!-- Generator: Adobe Illustrator 29.1.0, SVG Export Plug-In . SVG Version: 2.1.0 Build 142)  -->
  <defs>
    <style>
      .st0 {
        fill: #fff;
      }
    </style>
  </defs>
  <g>
    <path class="st0" d="M11.6,17.4L0,.7h9.9l6,8.7L21.8.7h10.1l-12,16.7v15.4h-8.4v-15.4Z"/>
    <path class="st0" d="M60.6,28.7c-3.3,3.1-7.9,4.8-12.6,4.8s-9.4-1.6-12.6-4.8c-3.4-3.3-5-7.7-5-12s1.6-8.8,5-12c3.3-3.1,7.9-4.8,12.6-4.8s9.4,1.6,12.6,4.8c3.4,3.2,5,7.7,5,12s-1.6,8.7-5,12ZM41.5,10.6c-1.7,1.7-2.5,4-2.5,6.3s1.3,4.8,2.5,6c1.5,1.5,3.7,2.5,6.5,2.5s4.9-1,6.4-2.5c1.5-1.5,2.6-3.7,2.6-6.1s-1.1-4.7-2.6-6.1c-1.8-1.7-4.2-2.5-6.4-2.5s-4.8.8-6.5,2.5Z"/>
    <path class="st0" d="M72.1,23.1c1.8,1.7,4.5,3.3,7.3,3.3s2.7-.5,3.2-1.1c.5-.5.8-1.2.8-2s-.2-1.3-.9-1.9c-.8-.7-2.1-1.1-4.1-1.7l-2.2-.7c-1.3-.4-3.3-1.2-4.6-2.6-1.6-1.8-1.8-4-1.8-5.7,0-3.9,1.5-6.3,2.9-7.7s4.3-3,8.2-3,6.9,1,9.9,2.6l-3.3,6.5c-2.5-2-4.4-2.2-5.5-2.2s-1.9.2-2.7,1c-.5.5-.8,1-.8,1.7s0,1,.4,1.4c.2.3.8.9,2.8,1.4l2.5.8c2,.6,4.1,1.3,5.8,3.2,1.6,1.7,2.1,3.5,2.1,5.7s-.7,5.8-3,8.1-6,3.3-9.5,3.3-3.9-.2-6.3-1.1c-.5-.2-2.5-1-4.8-2.5l3.6-6.7Z"/>
    <path class="st0" d="M105.6,12.7h12V.7h8.4v32h-8.4v-13h-12v13h-8.3V.7h8.3v12Z"/>
    <path class="st0" d="M141.1.7v32h-8.3V.7h8.3Z"/>
    <path class="st0" d="M147.8,32.7V.7h10.9c3.2,0,8.6.4,12.7,4.4,3.7,3.6,4.5,8.2,4.5,11.7s-1.1,8-4.2,11.1c-2.5,2.5-6.8,4.8-12.3,4.8h-11.6ZM156.1,25.7h1.7c2,0,4.8-.2,7-2.3,1.1-1,2.4-3,2.4-6.6s-.9-5.5-2.5-7c-2-1.8-4.6-2-6.6-2h-2v17.9Z"/>
    <path class="st0" d="M198.9,27.4h-11.6l-2.2,5.4h-8.8L188.6.7h9.1l12,32h-8.9l-2-5.4ZM196.7,21l-3.6-10.4-3.5,10.4h7.1Z"/>
    <path class="st0" d="M226.7,23.1c1.8,1.7,4.5,3.3,7.3,3.3s2.7-.5,3.2-1.1c.5-.5.8-1.2.8-2s-.2-1.3-.9-1.9c-.8-.7-2.1-1.1-4.1-1.7l-2.2-.7c-1.3-.4-3.3-1.2-4.6-2.6-1.6-1.8-1.8-4-1.8-5.7,0-3.9,1.5-6.3,2.9-7.7,1.6-1.6,4.3-3,8.2-3s6.9,1,9.9,2.6l-3.3,6.5c-2.5-2-4.4-2.2-5.5-2.2s-1.9.2-2.7,1c-.5.5-.8,1-.8,1.7s0,1,.4,1.4c.2.3.8.9,2.8,1.4l2.5.8c2,.6,4.1,1.3,5.8,3.2,1.6,1.7,2.1,3.5,2.1,5.7s-.7,5.8-3,8.1c-2.7,2.7-6,3.3-9.5,3.3s-3.9-.2-6.3-1.1c-.5-.2-2.5-1-4.8-2.5l3.6-6.7Z"/>
    <path class="st0" d="M270.4,27.4h-11.6l-2.2,5.4h-8.8L260.2.7h9.1l12,32h-8.9l-2-5.4ZM268.2,21l-3.6-10.4-3.5,10.4h7.1Z"/>
    <path class="st0" d="M312,28.7c-3.3,3.1-7.9,4.8-12.6,4.8s-9.4-1.6-12.6-4.8c-3.4-3.3-5-7.7-5-12s1.6-8.8,5-12c3.3-3.1,7.9-4.8,12.6-4.8s9.4,1.6,12.6,4.8c3.4,3.2,5,7.7,5,12s-1.6,8.7-5,12ZM292.9,10.6c-1.7,1.7-2.5,4-2.5,6.3s1.3,4.8,2.5,6c1.5,1.5,3.7,2.5,6.5,2.5s4.9-1,6.4-2.5,2.6-3.7,2.6-6.1-1.1-4.7-2.6-6.1c-1.8-1.7-4.2-2.5-6.4-2.5s-4.8.8-6.5,2.5Z"/>
    <path class="st0" d="M335.1.7c2.4,0,5.5.4,7.8,2.8,1.8,1.9,2.7,4.7,2.7,7.2s-1,5.1-2.5,6.7c-1.2,1.2-2.9,1.9-4.4,2.2l10,13.1h-10.3l-8-12.3v12.3h-8.3V.7h13ZM330.5,15.1h1.6c1.2,0,3-.3,4-1.3.6-.6,1.1-1.7,1.1-2.7s-.4-2-1.1-2.7c-.8-.8-2.2-1.2-4-1.2h-1.6v7.9Z"/>
    <path class="st0" d="M360.2.7v32h-8.3V.7h8.3Z"/>
  </g>
  <g>
    <path class="st0" d="M275.6,64.4c-1.6,1.6-3.9,2.4-6.3,2.4s-4.7-.8-6.3-2.4c-1.7-1.6-2.5-3.9-2.5-6s.8-4.4,2.5-6c1.6-1.6,3.9-2.4,6.3-2.4s4.7.8,6.3,2.4c1.7,1.6,2.5,3.9,2.5,6s-.8,4.3-2.5,6ZM266.1,55.3c-.9.8-1.3,2-1.3,3.1s.7,2.4,1.3,3c.8.7,1.8,1.3,3.2,1.3s2.5-.5,3.2-1.2,1.3-1.8,1.3-3.1-.6-2.4-1.3-3.1c-.9-.8-2.1-1.3-3.2-1.3s-2.4.4-3.2,1.3Z"/>
    <path class="st0" d="M290.1,53.9h-5v2.7h4.6v3.5h-4.6v6.3h-4.2v-16h9.2v3.5Z"/>
    <path class="st0" d="M301.9,53.9h-5v2.7h4.6v3.5h-4.6v6.3h-4.2v-16h9.2v3.5Z"/>
    <path class="st0" d="M308.7,50.4v16h-4.2v-16h4.2Z"/>
    <path class="st0" d="M323.5,65.9c-1.7.6-2.6.8-3.6.8-2.8,0-4.9-1.1-6.2-2.4-1.6-1.6-2.4-3.7-2.4-5.8s1-4.4,2.4-5.9c1.4-1.4,3.6-2.5,6-2.5s2,.1,3.7.8v5c-1.3-1.7-2.9-1.8-3.6-1.8-1.2,0-2.1.4-2.9,1.1-1,.9-1.4,2.2-1.4,3.3s.5,2.3,1.3,3.1c.7.6,1.8,1.1,3,1.1s2.2,0,3.6-1.7v4.9Z"/>
    <path class="st0" d="M330.8,50.4v16h-4.2v-16h4.2Z"/>
    <path class="st0" d="M343.9,63.7h-5.8l-1.1,2.7h-4.4l6.1-16h4.5l6,16h-4.4l-1-2.7ZM342.8,60.5l-1.8-5.2-1.8,5.2h3.6Z"/>
    <path class="st0" d="M355.2,50.4v12.5h5v3.5h-9.1v-16h4.2Z"/>
  </g>
</svg>