<?xml version="1.0" encoding="UTF-8"?>
<svg id="_レイヤー_1" xmlns="http://www.w3.org/2000/svg" version="1.1" viewBox="0 0 546.7 43.6">
  <!-- Generator: Adobe Illustrator 29.1.0, SVG Export Plug-In . SVG Version: 2.1.0 Build 142)  -->
  <defs>
    <style>
      .st0 {
        fill: #212121;
      }
    </style>
  </defs>
  <g>
    <path class="st0" d="M454.8,33.4c0,5.8-4.3,10.2-10.2,10.2s-10.2-4.4-10.2-10.2,4.3-10.2,10.2-10.2,10.2,4.4,10.2,10.2ZM451.8,33.4c0-4.4-3-7.4-7.2-7.4s-7.2,3.1-7.2,7.4,3,7.4,7.2,7.4,7.2-3.1,7.2-7.4Z"/>
    <path class="st0" d="M468,26.4h-6.8v5h6.6v2.8h-6.6v9h-3v-19.7h9.9v2.8h-.1Z"/>
    <path class="st0" d="M481.3,26.4h-6.8v5h6.6v2.8h-6.6v9h-3v-19.7h9.9v2.8h-.1Z"/>
    <path class="st0" d="M487.8,23.5v19.7h-3v-19.7h3Z"/>
    <path class="st0" d="M507.1,28.1c-2.2-2-4.2-2.2-5.3-2.2-4.3,0-7.2,3.2-7.2,7.5s3,7.4,7.2,7.4,4.2-1.2,5.3-2.3v3.6c-2,1.2-4,1.5-5.4,1.5-3.6,0-5.8-1.6-7-2.7-2.3-2.2-3.2-4.7-3.2-7.4s1.5-6.1,3.2-7.7c2-1.9,4.4-2.6,7.1-2.6s3.5.3,5.3,1.4v3.5Z"/>
    <path class="st0" d="M513.8,23.5v19.7h-3v-19.7h3Z"/>
    <path class="st0" d="M530.1,38.5h-8.4l-2.2,4.8h-3.2l9.8-20.8,9.3,20.8h-3.2l-2.1-4.8h0ZM528.9,35.6l-2.9-6.7-3,6.7h6-.1Z"/>
    <path class="st0" d="M540.9,23.5v16.9h5.8v2.8h-8.8v-19.7h3,0Z"/>
  </g>
  <g>
    <path class="st0" d="M13.2,25.1L0,2.3h7l9.3,16L25.5,2.3h7l-13.2,22.8v17.3h-6.1v-17.3Z"/>
    <path class="st0" d="M73.6,22.4c0,11.8-8.8,20.8-20.8,20.8s-20.8-9-20.8-20.8S40.7,1.6,52.7,1.6s20.8,9,20.8,20.8ZM67.5,22.4c0-8.9-6.1-15.1-14.7-15.1s-14.7,6.2-14.7,15.1,6.1,15.1,14.7,15.1,14.7-6.2,14.7-15.1Z"/>
    <path class="st0" d="M97.2,11.2c-.4-.9-.9-1.7-1.8-2.5-1.3-1-2.6-1.4-4.3-1.4-3.7,0-5.6,2.2-5.6,4.8s.4,3.3,4.3,4.9l4,1.6c7.4,3,9.4,7.2,9.4,11.8,0,7.6-5.4,12.9-12.9,12.9s-7.4-1.7-9.4-4c-2.2-2.4-3.1-5-3.4-7.8l6.1-1.3c0,2,.7,3.8,1.7,5.1,1.1,1.4,2.8,2.4,5.2,2.4,3.7,0,6.6-2.7,6.6-6.7s-3.1-5.8-5.8-6.8l-3.8-1.6c-3.3-1.4-8.2-4.1-8.2-10.2s4.2-10.6,11.7-10.6,6.8,1.6,8.1,2.7c1.1,1,2.2,2.3,3.1,4l-4.9,2.9Z"/>
    <path class="st0" d="M116.2,18.2h17.2V2.3h6.1v40.1h-6.1v-18.4h-17.2v18.4h-6.1V2.3h6.1v15.9Z"/>
    <path class="st0" d="M154.8,2.3v40.1h-6.1V2.3h6.1Z"/>
    <path class="st0" d="M172.3,2.3c5.6,0,10.5.6,14.9,3.9,4.9,3.7,7.7,9.5,7.7,16.2s-2.8,12.4-8.1,16.2c-4.7,3.3-9.1,3.8-14.7,3.8h-8.3V2.3h8.4ZM170,36.7h2.6c3,0,7.1-.2,10.6-2.8,2.8-2.1,5.5-5.9,5.5-11.4s-2.5-9.4-5.4-11.5c-3.5-2.5-7.8-2.8-10.7-2.8h-2.6v28.5Z"/>
    <path class="st0" d="M223.1,32.7h-17.1l-4.4,9.7h-6.6L214.9,0l19,42.4h-6.6l-4.2-9.7ZM220.6,27l-5.9-13.6-6.2,13.6h12.1Z"/>
    <path class="st0" d="M270.2,11.2c-.4-.9-.9-1.7-1.8-2.5-1.3-1-2.6-1.4-4.3-1.4-3.7,0-5.6,2.2-5.6,4.8s.4,3.3,4.3,4.9l4,1.6c7.4,3,9.4,7.2,9.4,11.8,0,7.6-5.4,12.9-12.9,12.9s-7.4-1.7-9.4-4c-2.2-2.4-3.1-5-3.4-7.8l6.1-1.3c0,2,.7,3.8,1.7,5.1,1.1,1.4,2.8,2.4,5.2,2.4,3.7,0,6.6-2.7,6.6-6.7s-3.1-5.8-5.8-6.8l-3.8-1.6c-3.3-1.4-8.2-4.1-8.2-10.2s4.2-10.6,11.7-10.6,6.8,1.6,8.1,2.7c1.1,1,2.2,2.3,3.1,4l-4.9,2.9Z"/>
    <path class="st0" d="M306,32.7h-17.1l-4.4,9.7h-6.6L297.8,0l19,42.4h-6.6l-4.2-9.7ZM303.5,27l-5.9-13.6-6.2,13.6h12.1Z"/>
    <path class="st0" d="M358.7,22.4c0,11.8-8.8,20.8-20.8,20.8s-20.8-9-20.8-20.8,8.8-20.8,20.8-20.8,20.8,9,20.8,20.8ZM352.6,22.4c0-8.9-6.1-15.1-14.7-15.1s-14.7,6.2-14.7,15.1,6.1,15.1,14.7,15.1,14.7-6.2,14.7-15.1Z"/>
    <path class="st0" d="M372.9,2.3c4.9,0,8,.6,10.6,2.3,4.4,2.9,4.7,7.7,4.7,9.4,0,5.8-3.5,10-8.9,11.2l12.5,17.1h-7.4l-11.5-16.4h-1.1v16.4h-6.1V2.3h7.1ZM371.8,20.7h1.9c1.7,0,8.5-.2,8.5-6.5s-5.3-6.2-8.4-6.2h-2.1v12.7Z"/>
    <path class="st0" d="M402.8,2.3v40.1h-6.1V2.3h6.1Z"/>
  </g>
</svg>