<?xml version="1.0" encoding="UTF-8"?>
<svg id="_レイヤー_1" xmlns="http://www.w3.org/2000/svg" version="1.1" viewBox="0 0 135 30">
  <!-- Generator: Adobe Illustrator 29.1.0, SVG Export Plug-In . SVG Version: 2.1.0 Build 142)  -->
  <defs>
    <style>
      .st0 {
        fill: #fff;
      }

      .st1 {
        fill: #172e58;
      }
    </style>
  </defs>
  <rect class="st0" y="0" width="135" height="30" rx="2" ry="2"/>
  <g>
    <path class="st1" d="M36.5,21c-2.5,0-4.1-1.5-4.1-5v-1.4c0-3.5,1.7-5,4.1-5s4.1,1.5,4.1,5v1.4c0,3.5-1.7,5-4.1,5ZM34.3,16c0,2.4.8,3.3,2.3,3.3s2.3-1,2.3-3.3v-1.4c0-2.4-.8-3.3-2.3-3.3s-2.3,1-2.3,3.3v1.4Z"/>
    <path class="st1" d="M50.5,9.8v11h-1.6l-4.5-7.5v7.5h-1.8v-11h1.6l4.5,7.6v-7.6s1.8,0,1.8,0Z"/>
    <path class="st1" d="M54.6,19.2h4.9v1.6h-6.8v-11h1.9s0,9.4,0,9.4Z"/>
    <path class="st1" d="M62.8,20.8h-1.9v-11h1.9v11Z"/>
    <path class="st1" d="M73.1,9.8v11h-1.6l-4.5-7.5v7.5h-1.8v-11h1.6l4.5,7.6v-7.6s1.8,0,1.8,0Z"/>
    <path class="st1" d="M82.1,9.8v1.6h-4.9v2.9h4.4v1.6h-4.4v3.3h4.9v1.6h-6.8v-11s6.8,0,6.8,0Z"/>
    <path class="st1" d="M93.6,12.4c-.5-.8-1.1-1.2-2.4-1.2s-1.8.5-1.8,1.4.8,1.5,2.4,1.8c2.2.5,3.4,1.3,3.4,3.3s-1.1,3.2-3.8,3.2-3.2-.6-4.1-1.8l1.5-1c.7.8,1.3,1.2,2.6,1.2s2-.7,2-1.5-.5-1.4-2.4-1.8c-2.1-.4-3.3-1.5-3.3-3.3s1.1-3.1,3.7-3.1,3,.6,3.8,1.8l-1.4,1s-.2,0-.2,0Z"/>
    <path class="st1" d="M98.7,14.3h4.2v-4.5h1.9v11h-1.9v-4.9h-4.2v4.9h-1.9v-11h1.9v4.5Z"/>
    <path class="st1" d="M110.8,21c-2.5,0-4.1-1.5-4.1-5v-1.4c0-3.5,1.7-5,4.1-5s4.1,1.5,4.1,5v1.4c0,3.5-1.7,5-4.1,5ZM108.5,16c0,2.4.8,3.3,2.3,3.3s2.3-1,2.3-3.3v-1.4c0-2.4-.8-3.3-2.3-3.3s-2.3,1-2.3,3.3v1.4Z"/>
    <path class="st1" d="M118.6,16.8v4h-1.9v-11h3.8c2.5,0,4.1,1.2,4.1,3.5s-1.5,3.5-4.1,3.5h-1.9ZM120.4,15.2c1.7,0,2.4-.7,2.4-1.9s-.7-1.9-2.4-1.9h-1.7v3.8s1.7,0,1.7,0Z"/>
  </g>
  <g>
    <path class="st1" d="M22.2,7.5c-.3,0-.5.2-.6.5l-.6,2.3h-10.5c-.2,0-.4,0-.5.2s-.1.3,0,.5l1.7,6c0,.3.3.4.6.4h6.9l-.3,1h-6.6v1.1h6.9c.3,0,.5-.2.6-.5l2.7-10.5h1.9v-1.1h-2.3,0ZM20,14.3l-.5,2h-1.3v-2s1.8,0,1.8,0ZM20.8,11.3l-.5,2h-2.1v-2h2.6ZM17.1,14.3v2h-2.3v-2s2.3,0,2.3,0ZM17.1,11.3v2h-2.3v-2h2.3ZM14,11.3v2h-2.2l-.6-2h2.8ZM14,14.3v2h-1.3l-.6-2s1.9,0,1.9,0Z"/>
    <path class="st1" d="M13.4,20.3c-.6,0-1.1.5-1.1,1.1s.5,1.1,1.1,1.1,1.1-.5,1.1-1.1-.5-1.1-1.1-1.1Z"/>
    <path class="st1" d="M18.5,20.4c-.6,0-1.1.5-1.1,1.1s.5,1.1,1.1,1.1,1.1-.5,1.1-1.1-.5-1.1-1.1-1.1Z"/>
  </g>
</svg>