<?xml version="1.0" encoding="UTF-8"?>
<svg id="_レイヤー_1" xmlns="http://www.w3.org/2000/svg" version="1.1" viewBox="0 0 320 344">
  <!-- Generator: Adobe Illustrator 29.1.0, SVG Export Plug-In . SVG Version: 2.1.0 Build 142)  -->
  <defs>
    <style>
      .st0 {
        fill: none;
      }

      .st1 {
        fill: #fff;
      }

      .st2 {
        fill: #ab2026;
      }

      .st3 {
        fill: #172e58;
      }
    </style>
  </defs>
  <g>
    <path class="st3" d="M201.7,329.9c-.9-1.3-1.9-2-4-2s-3,.9-3,2.4,1.4,2.4,3.9,3c3.7.8,5.6,2.2,5.6,5.5s-1.8,5.3-6.3,5.3-5.3-1-6.9-3l2.4-1.7c1.1,1.3,2.2,2,4.3,2s3.3-1.1,3.3-2.4-.8-2.4-4-3.1c-3.5-.7-5.5-2.4-5.5-5.6s1.8-5.1,6.1-5.1,5,1,6.3,3l-2.3,1.7h0Z"/>
    <path class="st3" d="M217.2,331.1c-.5-2.2-1.7-3.2-3.7-3.2s-3.8,1.6-3.8,5.6v2.3c0,3.9,1.3,5.6,3.8,5.6s3.2-1,3.7-3.2h3c-.6,4.1-3,5.9-6.7,5.9s-6.9-2.5-6.9-8.2v-2.3c0-5.8,2.8-8.2,6.9-8.2s6.1,1.9,6.7,5.9h-3v-.2h0Z"/>
    <path class="st3" d="M233,343.8l-3.5-7.4h-3.6v7.4h-3.1v-18.4h6.3c4.2,0,6.8,1.8,6.8,5.5s-1.2,4.1-3.3,4.9l3.9,8h-3.5,0ZM228.9,333.7c2.6,0,3.9-.7,3.9-2.8s-1.3-2.8-3.9-2.8h-3v5.6h3Z"/>
    <path class="st3" d="M245.1,344c-4.1,0-6.9-2.5-6.9-8.2v-2.3c0-5.8,2.8-8.2,6.9-8.2s6.9,2.5,6.9,8.2v2.3c0,5.8-2.8,8.2-6.9,8.2ZM241.4,335.8c0,4,1.3,5.6,3.8,5.6s3.8-1.6,3.8-5.6v-2.3c0-4-1.4-5.6-3.8-5.6s-3.8,1.6-3.8,5.6v2.3Z"/>
    <path class="st3" d="M258.2,341.1h8.2v2.7h-11.3v-18.4h3.1v15.7h0Z"/>
    <path class="st3" d="M271.8,341.1h8.2v2.7h-11.3v-18.4h3.1v15.7h0Z"/>
    <path class="st3" d="M302.4,325.4v10.9c0,5.4-2.8,7.7-6.9,7.7s-6.9-2.3-6.9-7.7v-10.9h3.1v10.9c0,3.5,1.3,5,3.8,5s3.8-1.5,3.8-5v-10.9h3.1Z"/>
    <path class="st3" d="M309.2,337.1v6.7h-3.1v-18.4h6.3c4.2,0,6.8,2,6.8,5.8s-2.5,5.9-6.8,5.9h-3.2,0ZM312.1,334.4c2.8,0,4-1.1,4-3.2s-1.2-3.1-4-3.1h-2.8v6.3h2.8Z"/>
  </g>
  <path class="st2" d="M273.5,157.8c-3.2-2.4-6.6-4.3-10.3-5.9-8-3.4-17.1-5-27-4.3-15.9,1.1-30.7,7.7-43.6,19.9l8.6-79.5-79.9,119.3c-2.6-6.1-5.8-10.1-10.2-15.1-2.4-2.8-4.3-5.2-5.8-9.3-1.4-4-1.5-7.6-1.1-10.7,1.2-9.6,9.1-18.1,18.9-20.1,9-1.8,16,1.1,21.3,5.9l21.5-32.4-39.5,3.3c-10.3.9-19.6,4.3-28.2,10.6-9.6,7-15.5,18-17.9,26.5-1.6,5.7-2.3,12.6-1.1,19.3,1,5.4,3,10.8,6.5,15.5,3.1,4.2,6.1,8.4,8.2,11.2s3.8,6.6,4.7,10c.8,3.1,1.1,6.6.8,10.3-.6,5.4-2.5,10.5-5.4,15.1-5.9,9.2-15.8,15.9-26.5,16.9-.3,0-1.3.1-1.5.1-3.1.2-6-.2-8.7-1-.5-.1-1.1-.3-1.6-.5-2.1-.8-4.1-1.8-5.8-3.1-3.1-2.2-5.6-5.2-7.3-8.8-2-4.2-2.9-9.1-2.3-14.5.4-3.7,1.4-7.2,2.9-10.5,3.7-8.1,10.3-14.8,18.3-18.5l3.6-25.9c-28.7,12.9-44.5,32.6-47.1,57.9-1.1,10.5.9,20.1,5.1,28,2.8,5.3,6.7,9.8,11.4,13.4,2.1,1.6,4.4,3.1,6.9,4.3,3.6,1.8,7.5,3.1,11.6,3.9s8.5,1,13.1.7h0l-7.9,11.8c12.9-3.5,25.4-7.1,29.8-8.6,4.2-1.4,8.5-3.1,11.4-7.6,3-4.5,26-40.2,26-40.2l37.5-2.7c1.5-1.4,2.6-2.4,3.3-3,6.3-5.2,12.8-8.2,20.1-11.3.6-.2,1.6-.8,2.2-1-.5-2.6-.7-4.9-.6-7.7,0-3,.5-4.6.5-4.7,2.7-22.4,22.4-42.3,45.3-43.9,4.2-.3,8.2,0,11.9.9,4.4,1.1,8.4,2.9,11.8,5.4,9.5,6.9,14.7,18.4,13.9,31.6-.6,9.9-3.6,16.1-7.7,22.5-4.9,7.6-13,15.5-24.2,24-10.2,7.8-43,29.6-43,29.6,0,0,33.4-12.1,50.7-20.7,10.7-5.3,27.5-15.7,35.7-26.8,6.7-9,10.5-20.2,11.3-28.2,2.2-21.4-6.3-40.4-20.9-51.2l.3-.2h0Z"/>
  <path class="st0" d="M236.1,248.7c10.2-7.9,17.3-14.9,21.5-21.4,3.8-5.9,6.1-10.9,6.6-19,.6-10.6-3.4-19.9-10.9-25.3-2.7-2-5.9-3.4-9.3-4.2-3.1-.7-6.3-1-9.7-.8-18.9,1.4-36.3,18.2-38.6,37.6,0,0,0,.3-.1.7-.2,1.1-.3,2.4-.3,3.3,0,1.3,0,2.5.1,3.7,6.3-2.3,9.8-3.2,13.4-3.6,4.9-.7,9.8,0,12.8,1.1,4.1,1.6,6.9,4.5,8.4,8.6,1.8,4.9,5.1,15.8,6.2,19.3h0Z"/>
  <path class="st0" d="M273.5,157.8c-3.2-2.4-6.6-4.3-10.3-5.9-8-3.4-17.1-5-27-4.3-15.9,1.1-30.7,7.7-43.6,19.9l8.6-79.5-79.9,119.3c-2.6-6.1-5.8-10.1-10.2-15.1-2.4-2.8-4.3-5.2-5.8-9.3-1.4-4-1.5-7.6-1.1-10.7,1.2-9.6,9.1-18.1,18.9-20.1,1.2-.2,2.3-.4,3.4-.5,7.4-.5,13.3,2.2,17.9,6.4l21.5-32.4-39.5,3.3c-10.3.9-19.6,4.3-28.2,10.6-9.6,7-15.5,18-17.9,26.5-1.6,5.7-2.3,12.6-1.1,19.3,1,5.4,3,10.8,6.5,15.5,3.1,4.2,6.1,8.4,8.2,11.2s3.8,6.6,4.7,10c.8,3.1,1.1,6.6.8,10.3-.6,5.4-2.5,10.5-5.4,15.1-5.9,9.2-15.8,15.9-26.5,16.9h-1.6c-3.1.2-6-.2-8.7-1-.5-.1-1.1-.3-1.6-.5-2.1-.8-4.1-1.8-5.8-3.1-3.1-2.2-5.6-5.2-7.3-8.8-2-4.2-2.9-9.1-2.3-14.5.4-3.7,1.4-7.2,2.9-10.5,3.7-8.1,10.3-14.8,18.3-18.5l3.6-25.9c-28.7,12.9-44.5,32.6-47.1,57.9-1.1,10.5.9,20.1,5.1,28,2.8,5.3,6.7,9.8,11.4,13.4,2.1,1.6,4.4,3.1,6.9,4.3,3.6,1.8,7.5,3.1,11.6,3.9,4,.8,8.3,1,12.8.7h.3l-7.9,11.8c12.9-3.5,25.4-7.1,29.8-8.6,4.2-1.4,8.5-3.1,11.4-7.6,3-4.5,26-40.2,26-40.2l28-2c.7-.6,1.2-.9,1.2-.9,0,0,6.8-4.1,12.8-7,9.1-4.3,13.9-6.5,21-9.3-.3-2.1-.5-4.1-.4-6.5,0-3,.5-4.6.5-4.7,2.7-22.4,22.4-42.3,45.3-43.9,4.2-.3,8.2,0,11.9.9,4.4,1.1,8.4,2.9,11.8,5.4,9.5,6.9,14.7,18.4,13.9,31.6-.6,9.9-3.6,16.1-7.7,22.5-3,4.6-7.1,9.3-12.4,14.2,9.4-2.8,20.5-6.1,20.5-6.1,7-2.2,8.4-.4,1.2,2.9-7.5,3.4-39,17.2-39,17.2h0c-12.4,9.1-37.4,25.4-37.4,25.4,0,0,42.2-16.6,50.8-20.8,10.7-5.2,27.5-15.7,35.7-26.8,6.7-9,10.5-20.2,11.3-28.2,2.2-21.4-6.3-40.4-20.9-51.2h0Z"/>
  <g>
    <path class="st3" d="M32.2,306.1c-2.1-1.2-4.1-2.6-6-4.1-7.4-5.6-13.4-12.7-17.9-21-6.7-12.4-9.4-26.8-7.8-41.6,1.8-17.2,8.1-32.6,18.8-45.9,10.2-12.6,24.2-22.9,41.7-30.7l1.7-.8c2.5-8.1,9.5-25.5,26.3-37.7,12.2-8.9,25.3-13.8,40.1-15l36.9-3.1L237.6,0l-5.9,68-6.6,61c3.7-.7,7.5-1.2,11.3-1.5,3.3-.2,6.6-.3,9.8-.2,9.9.4,19.3,2.5,28.1,6.3,5.3,2.3,10.4,5.2,15.1,8.7,21.9,16.3,33.2,43.4,30.2,72.4-1.4,13.4-7.3,28.3-15.8,39.8-10.6,14.3-29.6,26.8-43.9,33.7-9.4,4.6-35.2,15-47.1,19.3l-12.7,4.5-58.1-6.3-22,7.6,1-1.5c-8.7,2.6-16.3,4.9-18.8,5.6-4.4,1.3-49.2,13.8-49.2,13.8l-45.9,12.8,25.4-37.9h-.3Z"/>
    <path class="st1" d="M232.3,224.9c-3.2-3.2-5.6-5-13.1-5.7,0-.8.9-2.5,1.4-3.1,1.7-2.1,5.1-2.6,6.8-2.1.8.3,1.4.9,1.9,1.5,2.5-3.9,8-6,12.9-5.6,7.1.5,11.5,4.6,11,11.8-.2,2.5-2.4,4-3.4,6.1s-2.4,3.8-4.2,4.7c-.8.4-3.9.5-6.1.6-1.4.1-2.8-.7-3.4-2-1.1-2.5-1.8-4.4-3.6-6.2h-.2,0ZM146.4,221.8l19.2-1.4,6.3-38.3-9.4,14.6-16.1,25h0ZM302,212.9c-.8,8-4.5,20.4-12.4,31-8.7,11.7-25.6,22.6-37.5,28.4-8.6,4.2-33.9,14.4-45.5,18.7l-8.7,3.1-16.4-1.8c12.8-11.1,20.5-18.8,25.1-24.8,1.2-1.6.6-2.4-1.2-1.7-8.4,2.8-29.2,9.5-40.9,13.5,5-7.4,10.9-16.4,14.3-20,1.6-1.7,4.3-2.7,8-3.3,7.8-1.3,18.2-2.4,25-2.8,5.3-.3,9.2-.2,10.7,1.5,1,1.1,1.7,2.4,2.7,3.8.3.5.5,1,.7,1.6,1.7-1.2,3.2-2.4,4.7-3.5-1.1-1.4-2.4-3.1-3.5-4.6-1.6-2.1-2.7-2.8-5.9-3.2-4.5-.5-10.5.1-20.9,1.1-4.9.5-13.2,1.5-17.6,2.4-4.5.9-6.9,2.1-9.8,6-4.4,5.7-8.6,11.9-12.4,17.7-3.6,5.4-5.5,6.5-11.5,8.6-7.2,2.6-44,13.6-51.9,15.9-4.4,1.3-49.1,13.7-49.1,13.7l10.5-15.6.7-1.1c-.4,0-.8-.1-1.2-.2-4.7-.9-9.1-2.4-13.2-4.4-2.8-1.4-5.4-3-7.9-4.9-5.4-4.1-9.8-9.3-13-15.4-5-9.2-7-20.1-5.8-31.4,1.4-13.7,6.5-26,15-36.6,8.4-10.4,20.2-19,35.2-25.7l9.7-4.3c.3-2.1.8-4.3,1.4-6.4,1.3-4.4,6.4-19.6,20.1-29.6,9.5-6.9,19.6-10.7,31.1-11.7l38.6-3.2,6.8-.6,22.2-33.2,16-23.9-3.1,28.6-6.6,61.2c10.2-6.3,21.4-9.9,33.3-10.8,10.6-.8,20.6.8,29.6,4.8,4.1,1.8,8,4,11.5,6.6,16.9,12.6,25.5,33.6,23.2,56.4h-.1ZM73.9,215.5l-3.5,1.6c-6.3,2.9-11.5,8.3-14.4,14.6-1.2,2.6-2,5.3-2.2,8.1-.4,3.8.2,7.4,1.6,10.4,1.1,2.4,2.8,4.4,4.9,5.9,1.2.9,2.5,1.6,3.9,2.1.4.1.7.2.9.3h0c1.9.6,4,.8,6.2.7h1c8-.8,15.9-5.9,20.6-13.3,2.3-3.6,3.8-7.7,4.2-11.6.3-2.6,0-5.1-.5-7.5-.7-2.7-2-5.6-3.4-7.3-1.1-1.5-2.4-3.3-3.9-5.3-1.3-1.9-2.7-3.8-4.1-5.7-3.8-5.1-6.4-11.2-7.6-18.1,0-.6-.2-1.2-.3-1.8l-3.3,23.2-.5,3.8h.4ZM152.8,252.9l-18.8,1.4c-5.5,8.6-21.1,32.7-23.5,36.4h0c2.4-1,4.5-2.1,6.3-3,13.1-6.3,19-9.5,24.4-12.7,3.6-2.1,4.9-3.1,6.4-7.5,1.7-4.8,3.2-9.1,5.3-14.7h0ZM232,232.1c1.7,4.8,5,15.4,6,18.9,10-7.7,16.9-14.5,21-20.9,3.7-5.7,6-10.6,6.4-18.5.6-10.4-3.3-19.4-10.7-24.7-2.7-1.9-5.7-3.3-9.1-4.1-3-.7-6.2-1-9.5-.7-18.5,1.3-35.4,17.8-37.7,36.7,0,0,0,.3-.1.7-.2,1.1-.3,2.3-.3,3.2,0,1.3,0,2.4.1,3.6,6.2-2.3,9.6-3.1,13.1-3.6,4.8-.7,9.6,0,12.5,1.1,4,1.6,6.8,4.4,8.2,8.4h.1ZM274.5,162.1c-3.1-2.3-6.5-4.2-10.1-5.8-7.8-3.4-16.7-4.9-26.3-4.2-15.5,1.1-30,7.5-42.6,19.4l8.4-77.6-78,116.5c-2.6-6-5.7-9.9-9.9-14.7-2.3-2.7-4.2-5.1-5.6-9.1-1.4-3.9-1.4-7.4-1-10.4,1.2-9.4,8.9-17.7,18.4-19.6,1.1-.2,2.3-.4,3.3-.5,7.2-.5,13,2.2,17.5,6.3l21-31.7-38.6,3.2c-10.1.8-19.2,4.2-27.5,10.4-9.4,6.9-15.1,17.6-17.5,25.9-1.6,5.6-2.3,12.3-1.1,18.8,1,5.3,3,10.6,6.4,15.2,3,4.1,5.9,8.2,8,11,2,2.7,3.7,6.5,4.5,9.7.8,3.1,1.1,6.4.7,10-.5,5.3-2.4,10.3-5.3,14.7-5.7,9-15.4,15.5-25.9,16.5h-1.4c-3,.2-5.9-.2-8.5-.9-.5-.1-1-.3-1.5-.5-2.1-.7-4-1.8-5.7-3-3-2.2-5.5-5.1-7.1-8.6-2-4.1-2.8-8.9-2.3-14.2.4-3.6,1.4-7,2.8-10.3,3.6-7.9,10.1-14.4,17.9-18.1l3.6-25.3c-28.1,12.6-43.5,31.8-46,56.5-1.1,10.2.9,19.6,5,27.3,2.8,5.2,6.5,9.6,11.1,13.1,2.1,1.6,4.3,3,6.7,4.2,3.5,1.8,7.3,3,11.4,3.8,3.9.7,8.1,1,12.5.7h.3l-7.7,11.5c12.6-3.4,24.8-6.9,29.1-8.4,4.1-1.4,8.3-3,11.2-7.4,2.9-4.4,25.4-39.3,25.4-39.3l27.4-2c.7-.6,1.2-.8,1.2-.8,0,0,6.7-4,12.5-6.8,8.9-4.2,13.6-6.3,20.5-9.1-.3-2.1-.4-4-.4-6.4s.5-4.5.5-4.6c2.7-21.9,21.9-41.3,44.2-42.9,4.1-.3,8,0,11.6.9,4.3,1,8.2,2.8,11.6,5.3,9.3,6.7,14.3,17.9,13.6,30.9-.6,9.7-3.5,15.8-7.6,22-2.9,4.5-7,9.1-12.1,13.9,9.2-2.7,20-6,20-6,6.9-2.2,8.2-.4,1.1,2.8-7.4,3.3-38.1,16.8-38.1,16.8h0c-12.1,8.9-36.6,24.8-36.6,24.8,0,0,33.7-12.4,49.6-20.3,10.4-5.2,26.8-15.4,34.9-26.2,6.5-8.8,10.2-19.7,11.1-27.6,2.2-20.9-6.2-39.5-20.4-50.1l-.2.3h0ZM143.9,167.7c-3.7-3.3-7.7-4.8-12.3-4.5-.8,0-1.6.2-2.5.3-6.5,1.3-12,7.1-12.8,13.6-.3,2.7,0,4.9.7,7.1,1,2.7,2.1,4.3,4.3,6.8,1.8,2.1,3.5,4,5,6.1l18.9-28.3-1.4-1.2h.1Z"/>
  </g>
</svg>