<?xml version="1.0" encoding="UTF-8"?>
<svg id="_レイヤー_1" data-name="レイヤー_1" xmlns="http://www.w3.org/2000/svg" version="1.1" viewBox="0 0 48 48">
  <!-- Generator: Adobe Illustrator 29.1.0, SVG Export Plug-In . SVG Version: 2.1.0 Build 142)  -->
  <defs>
    <style>
      .st0 {
        fill: #231815;
      }

      .st1 {
        fill: #fff;
      }

      .st2 {
        fill: #ff0b53;
      }

      .st3 {
        fill: #00f0e9;
      }
    </style>
  </defs>
  <rect class="st0" width="48" height="48" rx="10.8" ry="10.8"/>
  <g>
    <path class="st2" d="M37.4,17c-3.8,0-6.8-3-6.8-6.8h-5.1v19.8c0,2.3-1.9,4.2-4.2,4.2s-4.2-1.9-4.2-4.2,1.9-4.2,4.2-4.2.9,0,1.3.2v-5.2c-.4,0-.9,0-1.3,0-5.1,0-9.3,4.2-9.3,9.3s4.2,9.3,9.3,9.3,9.3-4.2,9.3-9.3v-10.5c1.9,1.5,4.2,2.4,6.8,2.4v-4.9Z"/>
    <path class="st3" d="M36,15.6c-3.8,0-6.8-3.1-6.8-6.8h-5.1v19.8c0,2.3-1.9,4.2-4.2,4.2s-4.2-1.9-4.2-4.2,1.9-4.2,4.2-4.2.9,0,1.3.2v-5.2c-.4,0-.9,0-1.3,0-5.1,0-9.3,4.2-9.3,9.3s4.2,9.3,9.3,9.3,9.3-4.2,9.3-9.3v-10.5c1.9,1.5,4.2,2.4,6.8,2.4v-4.9Z"/>
    <path class="st1" d="M36,16.9c-1.6-.4-3.1-1.3-4-2.6-1.3-1-2.3-2.4-2.6-4h-3.8v19.8c0,2.3-1.9,4.2-4.2,4.2s-2.9-.8-3.6-2c-1.2-.7-2-2.1-2-3.6,0-2.3,1.9-4.2,4.2-4.2s.9,0,1.3.2v-3.8c-5.1,0-9.1,4.2-9.1,9.3s.8,4.2,2,5.8c1.6,1.3,3.6,2,5.8,2,5.1,0,9.3-4.2,9.3-9.3v-10.5c1.9,1.5,4.2,2.4,6.8,2.4v-3.6Z"/>
  </g>
</svg>