<?xml version="1.0" encoding="UTF-8"?>
<svg id="_レイヤー_1" data-name="レイヤー_1" xmlns="http://www.w3.org/2000/svg" version="1.1" viewBox="0 0 25 25">
  <!-- Generator: Adobe Illustrator 29.1.0, SVG Export Plug-In . SVG Version: 2.1.0 Build 142)  -->
  <defs>
    <style>
      .st0 {
        fill: #231815;
      }

      .st1 {
        fill: #fff;
      }
    </style>
  </defs>
  <path class="st0" d="M5.6,0h13.8c3.1,0,5.6,2.5,5.6,5.6v13.8c0,3.1-2.5,5.6-5.6,5.6H5.6c-3.1,0-5.6-2.5-5.6-5.6V5.6C0,2.5,2.5,0,5.6,0Z"/>
  <path class="st1" d="M13.9,11.4l5.5-6.4h-1.3l-4.7,5.5-3.8-5.5h-4.4l5.7,8.3-5.7,6.7h1.3l5-5.8,4,5.8h4.4l-5.9-8.6h0ZM12.1,13.4l-.6-.8-4.6-6.6h2l3.7,5.3.6.8,4.8,6.9h-2l-4-5.7h0Z"/>
</svg>